<?xml version="1.0" encoding="UTF-8"?>
<svg version="1.1" xmlns="http://www.w3.org/2000/svg" width="48" height="48">
<path d="M0 0 C-0.05542969 1.17175781 -0.11085938 2.34351563 -0.16796875 3.55078125 C-0.54603968 13.17318334 -0.54603968 13.17318334 3.55078125 21.50390625 C5.51368521 23.46425891 7.54140397 25.10212154 9.7265625 26.8359375 C12 29 12 29 12.05859375 31.1484375 C10.07366861 34.62022539 6.68178709 35.7874732 3 37 C0.22829523 37.30015077 -2.20092833 37.19993369 -5 37 C-5 37.66 -5 38.32 -5 39 C-10.28 39 -15.56 39 -21 39 C-22.28846154 32.55769231 -22.28846154 32.55769231 -22 29 C-21.34 28.34 -20.68 27.68 -20 27 C-20.350625 26.484375 -20.70125 25.96875 -21.0625 25.4375 C-22.38071658 22.01013689 -22.10875025 19.41005164 -21 16 C-18.27034288 10.39383712 -15.37383954 5.39400392 -10 2 C-9.360625 1.5875 -8.72125 1.175 -8.0625 0.75 C-5.33364557 -0.2423107 -2.88316483 -0.04707208 0 0 Z " fill="#557DBD" transform="translate(24,6)"/>
<path d="M0 0 C4.29992071 -0.05781406 6.45537994 0.10156638 10.13671875 2.53125 C12.01171875 5.46875 12.01171875 5.46875 11.94921875 9.15625 C11.01171875 12.46875 11.01171875 12.46875 9.01171875 14.46875 C10.00171875 15.12875 10.99171875 15.78875 12.01171875 16.46875 C12.55859375 18.34375 12.55859375 18.34375 12.76171875 20.46875 C12.87773438 21.520625 12.87773438 21.520625 12.99609375 22.59375 C13.01171875 24.46875 13.01171875 24.46875 12.01171875 26.46875 C6.73171875 26.46875 1.45171875 26.46875 -3.98828125 26.46875 C-5.27674279 20.02644231 -5.27674279 20.02644231 -4.98828125 16.46875 C-4.32828125 15.80875 -3.66828125 15.14875 -2.98828125 14.46875 C-3.33890625 13.953125 -3.68953125 13.4375 -4.05078125 12.90625 C-5.37265184 9.46938647 -4.76317084 7.0203273 -3.98828125 3.46875 C-1.98828125 0.46875 -1.98828125 0.46875 0 0 Z " fill="#F8C322" transform="translate(6.98828125,18.53125)"/>
<path d="M0 0 C8.96573784 0.99619309 11.66420489 1.44924685 17 8 C18.94929722 11.57807242 20 14.88077864 20 19 C13.4 19 6.8 19 0 19 C0 12.73 0 6.46 0 0 Z " fill="#EA4335" transform="translate(25,3)"/>
<path d="M0 0 C6.27 0.33 12.54 0.66 19 1 C17.875 10 17.875 10 14 15 C10.16752664 13.41507527 7.66913709 10.96883386 4.75 8.0625 C3.85796875 7.18722656 2.9659375 6.31195312 2.046875 5.41015625 C0 3 0 3 0 0 Z " fill="#41B65C" transform="translate(27,23)"/>
<path d="M0 0 C2.94563014 0.3184465 4.61076606 0.66266392 6.875 2.625 C8.49571141 6.04650187 7.86989425 8.38659313 7 12 C6.34 12.66 5.68 13.32 5 14 C5.66 14.66 6.32 15.32 7 16 C4.69 16 2.38 16 0 16 C-0.12375 15.195625 -0.2475 14.39125 -0.375 13.5625 C-0.684375 12.2940625 -0.684375 12.2940625 -1 11 C-1.66 10.67 -2.32 10.34 -3 10 C-1.68 10 -0.36 10 1 10 C1 9.34 1 8.68 1 8 C-0.32 7.67 -1.64 7.34 -3 7 C-1.125 2.25 -1.125 2.25 0 0 Z " fill="#DAB455" transform="translate(11,19)"/>
<path d="M0 0 C2.64 0 5.28 0 8 0 C9.125 7.75 9.125 7.75 8 10 C5.36 10 2.72 10 0 10 C0 6.7 0 3.4 0 0 Z " fill="#DEAA28" transform="translate(11,35)"/>
</svg>
